# xmcd
#
# Track frame offsets: 
#        150
#        10699
#        28281
#        41127
#        58243
#        68875
#        82584
#        94615
#        106586
#        121577
#        131155
#        142791
#        153330
#        164874
#        185135
#        199553
#        227519
#        239670
#        252658
#        264274
#
# Disc length: 3733 seconds
#
# Revision: 3
# Processed by: cddbd v1.5.2PL0 Copyright (c) Steve Scherf et al.
# Submitted via: ExactAudioCopy v1.0b1
#
DISCID=0e0e9314
DTITLE=Buddy Guy and Junior Wells - Pure Raw Blues [CD2]
DYEAR=2014
DGENRE=Blues
TTITLE0=Junior Wells - Messin' With The Kid
TTITLE1=Buddy Guy - When My Left Eye Jumps
TTITLE2=Junior Wells - Cut That Out
TTITLE3=Buddy Guy - Stone Crazy
TTITLE4=Junior Wells - Eagle Rock (feat. Elmore James)
TTITLE5=Buddy Guy - Sit and Cry (The Blues)
TTITLE6=Junior Wells - Lord, Lord
TTITLE7=Buddy Guy - You Sure Can't Do
TTITLE8=Junior Wells - So All Alone (feat. Muddy Waters)
TTITLE9=Buddy Guy - Slop Around
TTITLE10=Junior Wells - Little By Little
TTITLE11=Buddy Guy - I Got My Eyes On You
TTITLE12=Junior Wells - Universal Rock
TTITLE13=Buddy Guy and Junior Wells - Junior's Shuffle (Live)
TTITLE14=Junior Wells - I Could Cry
TTITLE15=Buddy Guy - Out Of Sight (Live)
TTITLE16=Junior Wells - I'm A Stranger
TTITLE17=Buddy Guy - Let Me Love You Baby
TTITLE18=Junior Wells and Earl Hooker - Galloping Horses A Lazy Mule
TTITLE19=Buddy Guy - The Things I Used To Do (Live)
EXTD=
EXTT0=
EXTT1=
EXTT2=
EXTT3=
EXTT4=
EXTT5=
EXTT6=
EXTT7=
EXTT8=
EXTT9=
EXTT10=
EXTT11=
EXTT12=
EXTT13=
EXTT14=
EXTT15=
EXTT16=
EXTT17=
EXTT18=
EXTT19=
PLAYORDER=
